<svg xmlns="http://www.w3.org/2000/svg" aria-hidden="true" style="position:absolute;width:0;height:0;overflow:hidden">
  <defs>
    <symbol id="icon-door" viewBox="0 0 35 32">
      <path fill="#179d2e" d="M31.68 28.444V0H3.52v28.444H0V32h35.2v-3.556h-3.52zm-17.6 0V3.555h7.04v24.889h-7.04z" style="fill:var(--color1, #179d2e)"/>
    </symbol>
    <symbol id="icon-electrical" viewBox="0 0 36 32">
      <path fill="#f02e2c" d="M31.08 19.441c0-.922-.814-1.676-1.808-1.676h-3.617v3.352h3.617c.995 0 1.808-.754 1.808-1.676zm-1.808 5.028h-3.617v3.352h3.617c.995 0 1.808-.754 1.808-1.676s-.814-1.676-1.808-1.676zm-14.467-5.028h-3.617v6.704h3.617c0 1.844 1.627 3.352 3.617 3.352h5.425V16.089h-5.425c-1.989 0-3.617 1.508-3.617 3.352z" style="fill:var(--color2, #f02e2c)"/>
      <path fill="#f02e2c" d="M4.124 17.217c0-1.951 1.456-3.548 3.236-3.548h2.427c3.123 0 5.663-2.785 5.663-6.209s-2.54-6.209-5.663-6.209H4.124c-.89 0-1.618.798-1.618 1.774s.728 1.774 1.618 1.774h5.663c1.343 0 2.427 1.189 2.427 2.661s-1.084 2.661-2.427 2.661H7.36c-3.576 0-6.473 3.175-6.473 7.096s2.896 7.096 6.473 7.096h3.236v-3.548H7.36c-1.78 0-3.236-1.597-3.236-3.548z" style="fill:var(--color2, #f02e2c)"/>
    </symbol>
    <symbol id="icon-furniture" viewBox="0 0 39 32">
      <path fill="#f5af23" d="M20.279 3.704C20.279 1.648 21.75 0 23.584 0h5.784c1.818 0 3.305 1.667 3.305 3.704v4c-1.917.759-3.305 2.796-3.305 5.204v3.759H20.28V3.704zM9.538 12.889v3.778h9.088V3.704C18.626 1.648 17.155 0 15.321 0H9.537C7.719 0 6.232 1.667 6.232 3.704v3.981c1.917.759 3.305 2.815 3.305 5.204zm24.225-3.574c-1.62.296-2.743 2.019-2.743 3.87v5.333H7.886v-5.556c0-.982-.348-1.924-.968-2.619s-1.46-1.085-2.337-1.085c-.877 0-1.717.39-2.337 1.085s-.968 1.637-.968 2.619v9.259c0 2.037 1.487 3.704 3.305 3.704v3.704h3.305v-3.704H31.02v3.704h3.305v-3.704c1.818 0 3.305-1.667 3.305-3.704v-9.259c0-2.241-1.801-4.037-3.867-3.648z" style="fill:var(--color3, #f5af23)"/>
    </symbol>
    <symbol id="icon-home" viewBox="0 0 37 32">
      <path fill="#f02e2c" d="M18.518-.16-.084 16.781h5.58V31.84h26.042V16.781h5.58L18.516-.16zm0 10.353c4.353 0 8.296 1.751 11.161 4.593l-2.232 2.221a12.574 12.574 0 0 0-8.929-3.671c-3.497 0-6.659 1.393-8.929 3.671l-2.232-2.221a15.79 15.79 0 0 1 11.161-4.593zm0 6.268a9.488 9.488 0 0 1 6.697 2.767l-2.232 2.202a6.288 6.288 0 0 0-4.464-1.826 6.3 6.3 0 0 0-4.464 1.826l-2.232-2.202a9.483 9.483 0 0 1 6.697-2.767zm0 6.287c1.749 0 3.162 1.393 3.162 3.125s-1.414 3.144-3.162 3.144c-1.749 0-3.162-1.412-3.162-3.144s1.414-3.125 3.162-3.125z" style="fill:var(--color2, #f02e2c)"/>
    </symbol>
    <symbol id="icon-instalation" viewBox="0 0 31 32">
      <path fill="#f5af23" d="M6.297 19.04H9.43l4.699 4.8h-3.133l-4.699-4.8zm-3.133-16H4.73v-1.6c0-.424.165-.831.459-1.131S5.881-.16 6.297-.16h6.266c.415 0 .814.169 1.108.469s.459.707.459 1.131v1.6h3.133v-1.6c0-.424.165-.831.459-1.131s.692-.469 1.108-.469h6.266c.415 0 .814.169 1.108.469s.459.707.459 1.131v1.6h1.566c.831 0 1.628.337 2.215.937s.918 1.414.918 2.263v20.8c0 .849-.33 1.663-.918 2.263s-1.384.937-2.215.937v1.6H23.53v-1.6H7.866v1.6H3.167v-1.6c-.831 0-1.628-.337-2.215-.937S.034 27.889.034 27.04V6.24c0-.849.33-1.663.918-2.263s1.384-.937 2.215-.937zm21.93 4.8c.415 0 .814.169 1.108.469s.459.707.459 1.131-.165.831-.459 1.131c-.294.3-.692.469-1.108.469s-.814-.169-1.108-.469c-.294-.3-.459-.707-.459-1.131s.165-.831.459-1.131a1.55 1.55 0 0 1 1.108-.469zm-6.265 0c.415 0 .814.169 1.108.469s.459.707.459 1.131-.165.831-.459 1.131c-.294.3-.692.469-1.108.469s-.814-.169-1.108-.469c-.294-.3-.459-.707-.459-1.131s.165-.831.459-1.131a1.55 1.55 0 0 1 1.108-.469zm9.398-1.6H3.164v6.4h25.063v-6.4zM3.164 27.04h25.063v-11.2H3.164v11.2zm3.133-19.2c.415 0 .814.169 1.108.469s.459.707.459 1.131-.165.831-.459 1.131c-.294.3-.692.469-1.108.469s-.814-.169-1.108-.469c-.294-.3-.459-.707-.459-1.131s.165-.831.459-1.131a1.55 1.55 0 0 1 1.108-.469zm10.965 11.2h3.133l4.699 4.8h-3.133l-4.699-4.8z" style="fill:var(--color3, #f5af23)"/>
    </symbol>
    <symbol id="icon-outdoor" viewBox="0 0 30 32">
      <path fill="#fff" d="M33.088-3.2H-3.008v38.4h36.096V-3.2z" style="fill:var(--color4, #fff)"/>
      <path fill="#179d2e" d="M25.761 15.508h-6.17a4.059 4.059 0 0 1-1.625-.344 4.262 4.262 0 0 1-1.375-.978c-.197-.21-.373-.438-.528-.685a4.666 4.666 0 0 1-.633-1.627 4.708 4.708 0 0 1-.081-.88V4.429a4.827 4.827 0 0 1 .322-1.727A4.458 4.458 0 0 1 17.233.677a4.06 4.06 0 0 1 2.358-.761h6.17c.279 0 .555.028.827.087.274.057.539.143.796.257a4.29 4.29 0 0 1 1.377.979 4.596 4.596 0 0 1 1.16 2.31c.053.292.081.585.081.88v6.565a4.799 4.799 0 0 1-.322 1.727 4.559 4.559 0 0 1-.919 1.465 4.276 4.276 0 0 1-1.377.978 4.032 4.032 0 0 1-1.623.344zM19.591 2.38a1.822 1.822 0 0 0-1.072.345 1.97 1.97 0 0 0-.533.567 2.145 2.145 0 0 0-.324 1.138v6.565c0 .135.013.268.036.4a2.23 2.23 0 0 0 .288.74 1.959 1.959 0 0 0 1.229.872c.124.027.249.04.376.04h6.17a1.887 1.887 0 0 0 1.363-.602c.091-.095.171-.198.24-.31a2.146 2.146 0 0 0 .327-1.14V4.43a2.167 2.167 0 0 0-.327-1.138 1.955 1.955 0 0 0-.865-.757 1.887 1.887 0 0 0-.362-.117 1.896 1.896 0 0 0-.376-.038h-6.17zM8.792 15.508H4.164a4.054 4.054 0 0 1-2.356-.762 4.26 4.26 0 0 1-.642-.56c-.197-.21-.373-.438-.528-.685a4.666 4.666 0 0 1-.633-1.627 4.708 4.708 0 0 1-.081-.88V6.071a4.794 4.794 0 0 1 .322-1.727 4.554 4.554 0 0 1 .92-1.465 4.26 4.26 0 0 1 1.375-.978 4.054 4.054 0 0 1 1.623-.344h4.628a4.059 4.059 0 0 1 1.623.344 4.242 4.242 0 0 1 1.377.978c.197.21.373.438.528.685a4.692 4.692 0 0 1 .633 1.627c.055.29.081.583.081.88v4.923a4.794 4.794 0 0 1-.322 1.727 4.628 4.628 0 0 1-.392.78 4.361 4.361 0 0 1-1.17 1.245 4.157 4.157 0 0 1-1.529.675c-.274.057-.55.087-.829.087zM4.164 4.02a1.887 1.887 0 0 0-1.363.602 2.084 2.084 0 0 0-.565 1.45v4.923a2.142 2.142 0 0 0 .325 1.14 2.02 2.02 0 0 0 .533.565 1.887 1.887 0 0 0 1.07.347h4.628a1.822 1.822 0 0 0 1.072-.347c.105-.075.202-.16.293-.255a2.063 2.063 0 0 0 .417-.665 2.143 2.143 0 0 0 .148-.785V6.072c0-.135-.012-.268-.038-.4a2.137 2.137 0 0 0-.287-.74 1.959 1.959 0 0 0-1.229-.872 1.76 1.76 0 0 0-.376-.04H4.164zM24.218 31.918h-4.626a4.059 4.059 0 0 1-2.358-.762 4.26 4.26 0 0 1-.642-.56 4.518 4.518 0 0 1-.92-1.465 4.708 4.708 0 0 1-.322-1.727v-4.923a4.794 4.794 0 0 1 .322-1.727c.107-.273.237-.533.392-.78s.331-.475.528-.683a4.192 4.192 0 0 1 1.375-.979 4.06 4.06 0 0 1 1.625-.344h4.626a3.995 3.995 0 0 1 1.625.344c.257.113.501.252.733.417s.445.352.642.562c.197.208.373.437.528.683a4.628 4.628 0 0 1 .633 1.627c.055.29.081.583.081.88v4.923a4.794 4.794 0 0 1-.322 1.727 4.518 4.518 0 0 1-.92 1.465 4.26 4.26 0 0 1-1.375.978 4.059 4.059 0 0 1-1.625.344zM19.591 20.43a1.822 1.822 0 0 0-1.072.347 1.97 1.97 0 0 0-.533.565 2.145 2.145 0 0 0-.324 1.14v4.923c0 .135.013.268.036.4a2.23 2.23 0 0 0 .288.74 1.959 1.959 0 0 0 1.229.872c.124.027.249.04.376.04h4.626a1.792 1.792 0 0 0 .738-.157 1.903 1.903 0 0 0 .627-.445 2.084 2.084 0 0 0 .565-1.45v-4.923c0-.135-.013-.268-.036-.4a2.187 2.187 0 0 0-.289-.74 1.959 1.959 0 0 0-1.227-.872 1.785 1.785 0 0 0-.378-.04h-4.626zM8.792 31.918H4.164a4.054 4.054 0 0 1-2.356-.762 4.26 4.26 0 0 1-.642-.56 4.518 4.518 0 0 1-.92-1.465 4.708 4.708 0 0 1-.322-1.727v-4.923a4.794 4.794 0 0 1 .322-1.727 4.554 4.554 0 0 1 .92-1.463 4.192 4.192 0 0 1 1.375-.979 4.06 4.06 0 0 1 1.623-.344h4.628c.279 0 .555.028.829.087a4.11 4.11 0 0 1 1.529.674 4.375 4.375 0 0 1 1.17 1.245c.154.247.285.507.392.78a4.739 4.739 0 0 1 .322 1.727v4.923a4.794 4.794 0 0 1-.322 1.727 4.59 4.59 0 0 1-.92 1.465 4.361 4.361 0 0 1-.642.56 4.081 4.081 0 0 1-2.358.762zM4.164 20.43a1.887 1.887 0 0 0-1.363.602 2.084 2.084 0 0 0-.565 1.45v4.923a2.142 2.142 0 0 0 .325 1.14 2.02 2.02 0 0 0 .533.565 1.887 1.887 0 0 0 1.07.347h4.628a1.822 1.822 0 0 0 1.072-.347c.105-.073.202-.158.293-.255a2.063 2.063 0 0 0 .417-.665 2.143 2.143 0 0 0 .148-.785v-4.923c0-.135-.012-.268-.038-.4a2.063 2.063 0 0 0-.11-.385 1.959 1.959 0 0 0-1.406-1.227 1.76 1.76 0 0 0-.376-.04H4.164z" style="fill:var(--color1, #179d2e)"/>
    </symbol>
    <symbol id="icon-paint" viewBox="0 0 29 32">
      <path fill="#0177b8" d="M25.87 0H7.997c-1.792 0-3.25 1.502-3.25 3.349v5.023c0 1.847 1.457 3.349 3.25 3.349H25.87c1.792 0 3.25-1.502 3.25-3.349V3.349C29.12 1.502 27.663 0 25.87 0z" style="fill:var(--color5, #0177b8)"/>
      <path fill="#0177b8" d="M17.492 20.969v-3.152a3.161 3.161 0 0 0-3.163-3.152H3.259V5.209A3.161 3.161 0 0 0 .096 8.361v6.304a3.161 3.161 0 0 0 3.163 3.152h11.07v3.152a1.582 1.582 0 0 0-1.581 1.576v7.88c0 .418.167.819.463 1.114s.699.462 1.118.462h3.163a1.582 1.582 0 0 0 1.581-1.576v-7.88c0-.418-.167-.819-.463-1.114s-.699-.462-1.118-.462z" style="fill:var(--color5, #0177b8)"/>
    </symbol>
    <symbol id="icon-picture" viewBox="0 0 37 32">
      <path fill="#0177b8" d="M0 0v32h37.44V0H0zm2.872 2.991h31.695v26.018H2.872V2.991zm6.534 3.756c-.894 0-1.646.312-2.255.936s-.914 1.394-.914 2.31c0 .874.305 1.622.914 2.247s1.362.936 2.255.936c.853 0 1.584-.312 2.194-.936s.914-1.373.914-2.247c0-.915-.305-1.686-.914-2.31s-1.341-.936-2.194-.936zm13.468 1.582-7.191 11.172-3.819-3.246-5.628 7.489v2.186h24.968v-8.78l-8.329-8.82z" style="fill:var(--color5, #0177b8)"/>
    </symbol>
    <symbol id="icon-tap" viewBox="0 0 30 32">
      <path fill="#179d2e" d="M13.94 0c-.269 0-.538.269-1.076.807v2.151H9.6c-1.041-1.076-1.041-1.076-2.117 0s-1.076 1.076 0 2.151 1.076 1.076 2.069 0h3.311V7.26h2.152V5.109h3.275c1.063 1.076 1.063 1.076 2.139 0s1.076-1.076 0-2.151-1.076-1.076-2.186 0h-3.228V.807C14.477.269 14.208 0 13.939 0zM-.049 5.244v17.21h2.152V5.244H-.049zm4.304 3.227L3.179 7.395v12.908l1.076-1.076V8.471zm9.685-.135c-2.152 0-3.252 0-3.311 2.151H5.332v6.454h4.346c1.034 1.076 2.11 2.151 4.262 2.151s3.228-1.076 4.304-2.151c4.304 0 4.304 0 4.304 2.151v2.151h6.456V16.94c0-4.303-2.152-6.454-6.456-6.454h-5.38c.024-2.151-1.076-2.151-3.228-2.151zm7.532 13.983v1.076h8.608v-1.076h-8.608zm4.304 2.152s-2.611 3.473-2.152 5.513c.284 1.261.859 2.017 2.152 2.017s1.868-.756 2.152-2.017c.459-2.04-2.152-5.513-2.152-5.513z" style="fill:var(--color1, #179d2e)"/>
    </symbol>
  </defs>
</svg>
